<svg xmlns="http://www.w3.org/2000/svg" viewBox="0 0 1000 1000" >
<path  transform="rotate(180)" transform-origin="center" unicode="&#xe900;" glyph-name="fairy" d="M890.675 369.766c0 0 150.118 180.224 105.062 225.28s-120.218-75.162-135.168-90.112c0 0 90.112 150.118 45.056 180.224-34.816 23.347-87.859-25.6-144.794-167.322-54.067 91.955-145.408 152.166-249.037 152.166s-194.97-60.416-249.037-152.166c-56.934 141.722-109.773 190.464-144.794 167.322-45.056-30.106 45.056-180.224 45.056-180.224-14.95 14.95-90.112 135.168-135.168 90.112s105.062-225.28 105.062-225.28-120.218 105.062-75.162-30.106c25.395-76.39 113.459-133.53 184.934-168.96 49.152-113.459 151.142-191.488 268.902-191.488s219.75 78.029 268.902 191.488c71.68 35.226 159.539 92.57 184.934 168.96 45.466 135.168-74.752 30.106-74.752 30.106zM354.304 204.493c-37.274 0-67.584 30.31-67.584 67.584s30.31 67.584 67.584 67.584c37.274 0 67.584-30.31 67.584-67.584s-30.31-67.584-67.584-67.584zM669.696 204.493c-37.274 0-67.584 30.31-67.584 67.584s30.31 67.584 67.584 67.584c37.274 0 67.584-30.31 67.584-67.584-0.205-37.274-30.31-67.584-67.584-67.584zM512 752.538c145.203 0 262.758 37.069 262.758 82.534 0 45.67-117.76 82.534-262.758 82.534s-262.963-36.864-262.963-82.33c0-45.67 117.76-82.739 262.963-82.739zM512 887.706c118.784 0 215.040-23.552 215.040-52.634s-96.256-52.634-215.040-52.634-215.040 23.757-215.040 52.838 96.256 52.429 215.040 52.429z" />
</svg>