<svg xmlns="http://www.w3.org/2000/svg" viewBox="0 0 1000 1000" >
<path transform="rotate(180)" transform-origin="center" unicode="&#xe901;" glyph-name="goblin" d="M855.859 502.067l62.464 93.798c-31.334 46.694-109.363 46.694-109.363 46.694l15.565 46.899c-57.344 16.384-140.493 15.565-206.643 10.854l-81.715 224.256c-6.963 18.842-33.587 18.842-40.346 0l-81.51-224.87c-67.174 4.915-154.624 6.349-214.221-10.65l15.565-46.899c0 0-78.029 0-109.363-46.899l62.464-93.594c0 0 12.902 6.554 31.744 13.926-34.816-56.115-55.091-122.47-55.091-193.536 0.205-202.752 164.454-366.797 367.206-366.797 202.752 0.205 366.797 164.454 366.797 367.206 0 71.066-20.275 137.216-55.296 193.331 18.637-7.373 31.744-13.722 31.744-13.722zM348.365 189.542c-38.707 0-70.246 31.539-70.246 70.246s31.539 70.246 70.246 70.246 70.246-31.539 70.246-70.246c0-38.912-31.334-70.246-70.246-70.246zM676.25 189.542c-38.707 0-70.246 31.539-70.246 70.246s31.539 70.246 70.246 70.246 70.246-31.539 70.246-70.246c0-38.912-31.334-70.246-70.246-70.246z" />
</svg>