<svg xmlns="http://www.w3.org/2000/svg" viewBox="0 0 1000 1000" >
<path transform="rotate(180)" transform-origin="center" unicode="&#xe902;" glyph-name="monster" d="M842.957 928.256c-8.602-36.045-13.107-68.403-24.166-98.509-17.408-47.718-35.021-96.461-60.416-140.083-22.118-38.093-54.477-52.429-104.038-29.491-95.642 44.646-196.608 42.394-292.25-2.253-42.803-20.070-72.499-9.421-91.546 24.781-26.829 48.538-47.718 100.966-67.789 152.986-10.65 27.853-14.336 58.573-23.962 100.557-119.808-142.746-130.458-321.536-41.779-454.042 14.95-22.118 22.118-56.32 18.227-82.944-21.709-154.214 19.456-282.624 151.142-371.712 127.386-86.016 263.578-88.678 394.445-10.854 132.915 79.053 187.392 203.776 166.502 355.533-7.578 55.91 5.53 95.437 36.659 140.493 75.366 108.954 44.646 319.693-61.030 415.539zM349.594 196.915c-38.502 0-69.632 31.13-69.632 69.632s31.13 69.632 69.632 69.632c38.502 0 69.632-31.13 69.632-69.632s-31.13-69.632-69.632-69.632zM674.816 196.915c-38.502 0-69.632 31.13-69.632 69.632s31.13 69.632 69.632 69.632c38.502 0 69.632-31.13 69.632-69.632s-31.334-69.632-69.632-69.632z" />
</svg>