<svg xmlns="http://www.w3.org/2000/svg" viewBox="0 0 1000 1000" >
<path transform="rotate(180)" transform-origin="center" unicode="&#xe903;" glyph-name="witch" d="M860.16 489.574c-33.792 0-59.597 47.718-59.597 47.718s-0.205 0.205-0.205 0.205c-8.602 13.517-18.022 26.214-28.058 38.298-11.059 18.842-22.938 44.237-30.31 75.162-16.794 71.68 0 35.84 50.586 53.862s320.512 53.862 101.171 71.68-371.098 125.542-387.891 143.36c-16.794 18.022-50.586 53.862-101.171-35.84s-101.171-53.862-134.963-89.702c-33.792-35.84-72.909-282.214-72.909-282.214s-213.811-22.528-146.227-94.208c23.962-25.395 62.874-41.779 103.014-52.429-1.229-12.288-1.843-24.576-1.843-37.274 0-207.872 158.515-376.422 354.304-376.422s354.099 168.55 354.099 376.422c0 11.059-0.614 22.118-1.638 32.973 59.187 22.938 119.603 66.765 119.603 92.57 0.205 35.84-84.173 35.84-117.965 35.84zM343.040 187.699c-39.117 0-70.656 31.744-70.656 70.656s31.744 70.656 70.656 70.656 70.656-31.744 70.656-70.656-31.744-70.656-70.656-70.656zM673.178 187.699c-39.117 0-70.656 31.744-70.656 70.656s31.744 70.656 70.656 70.656 70.656-31.744 70.656-70.656-31.744-70.656-70.656-70.656z" />
</svg>